<svg width="110" height="90" viewBox="0 0 110 90" fill="none" xmlns="http://www.w3.org/2000/svg">
<path d="M105.417 40.5H82.5C81.2844 40.5 80.1186 40.9741 79.2591 41.818C78.3996 42.6619 77.9167 43.8065 77.9167 45V85.5C77.9167 86.6935 78.3996 87.8381 79.2591 88.682C80.1186 89.5259 81.2844 90 82.5 90H105.417C106.632 90 107.798 89.5259 108.658 88.682C109.517 87.8381 110 86.6935 110 85.5V45C110 43.8065 109.517 42.6619 108.658 41.818C107.798 40.9741 106.632 40.5 105.417 40.5ZM105.417 81H82.5V49.5H105.417V81ZM91.6667 0H9.16667C4.07917 0 0 4.005 0 9V63C0 65.3869 0.965771 67.6761 2.68485 69.364C4.40394 71.0518 6.73552 72 9.16667 72H41.25V81H32.0833V90H68.75V81H59.5833V72H68.75V63H9.16667V9H91.6667V31.5H100.833V9C100.833 6.61305 99.8676 4.32387 98.1485 2.63604C96.4294 0.948211 94.0978 0 91.6667 0Z" fill="black"/>
</svg>
