<svg width="100" height="90" viewBox="0 0 100 90" fill="none" xmlns="http://www.w3.org/2000/svg">
<g clip-path="url(#clip0)">
<path d="M19.9999 16.875C24.1405 16.875 27.4999 13.0957 27.4999 8.4375C27.4999 3.7793 24.1405 0 19.9999 0C15.8593 0 12.4999 3.7793 12.4999 8.4375C12.4999 13.0957 15.8593 16.875 19.9999 16.875ZM79.9999 16.875C84.1405 16.875 87.4999 13.0957 87.4999 8.4375C87.4999 3.7793 84.1405 0 79.9999 0C75.8593 0 72.4999 3.7793 72.4999 8.4375C72.4999 13.0957 75.8593 16.875 79.9999 16.875ZM99.6405 82.2832L92.7655 62.9473L86.3436 71.1035L86.0311 74.3027L90.3593 86.4668C91.1405 88.6641 93.0155 90 94.9999 90C95.6249 90 96.2499 89.877 96.8593 89.5957C99.4218 88.4355 100.672 85.166 99.6405 82.2832ZM94.2968 45.4043L91.4061 31.3066C90.6874 27.791 88.4999 24.8379 85.5468 23.4141C82.6561 22.0078 79.453 22.2363 76.7812 23.9941C73.2343 26.3496 70.578 30.0586 69.2655 34.4355L67.4999 40.3945L64.9999 42.1875V25.3125C64.9999 23.7656 63.8749 22.5 62.4999 22.5H37.4999C36.1249 22.5 34.9999 23.7656 34.9999 25.3125V42.1875L32.4843 40.3945L30.7187 34.4355C29.4218 30.041 26.7499 26.3496 23.203 23.9941C20.5155 22.2363 17.328 22.0078 14.4374 23.4141C11.4843 24.8379 9.29677 27.791 8.57802 31.3066L5.70302 45.4043C4.98427 48.9199 5.8124 52.6465 7.95302 55.3711L18.453 68.7129L20.0311 84.9902C20.3124 87.8555 22.4686 90 24.9999 90C25.1874 90 25.3593 89.9824 25.5468 89.9648C28.2968 89.6309 30.2655 86.8535 29.9687 83.7598L28.3905 67.4473C28.1561 65.1621 27.3124 63.0352 25.953 61.2949L19.1874 52.6816L21.9374 40.3242L22.9999 43.9102C23.6405 46.1074 24.8593 48.0234 26.828 49.6406L34.8124 55.3535C35.5312 55.8633 36.703 56.1621 37.4999 56.2324H62.4999C63.2968 56.1621 64.4687 55.8633 65.1874 55.3535L73.1718 49.6406C75.1405 48.0234 76.3593 46.125 76.9999 43.9102L78.0624 40.3242L80.8124 52.6816L74.0468 61.2949C72.6874 63.0352 71.8437 65.1621 71.6093 67.4473L70.0312 83.7598C69.7343 86.8535 71.7187 89.6309 74.453 89.9648C74.6405 89.9824 74.8124 90 74.9999 90C77.5155 90 79.6874 87.873 79.9687 84.9902L81.5468 68.7129L92.0468 55.3711C94.1718 52.6465 95.0155 48.9199 94.2968 45.4043ZM7.23427 62.9473L0.359274 82.2832C-0.671976 85.166 0.578024 88.4355 3.14052 89.5957C5.76552 90.7559 8.6249 89.2969 9.64052 86.4668L13.9686 74.3027L13.6561 71.1035L7.23427 62.9473Z" fill="black"/>
</g>
<defs>
<clipPath id="clip0">
<rect width="100" height="90" fill="white"/>
</clipPath>
</defs>
</svg>
