<svg width="100" height="100" viewBox="0 0 100 100" fill="none" xmlns="http://www.w3.org/2000/svg">
<g clip-path="url(#clip0)">
<path d="M98.6406 86.457L79.166 66.9863C78.2871 66.1074 77.0957 65.6191 75.8457 65.6191H72.6621C78.0527 58.7246 81.2559 50.0547 81.2559 40.6211C81.2559 18.1816 63.0703 0 40.6289 0C18.1875 0 0 18.1816 0 40.6211C0 63.0605 18.1855 81.2422 40.6289 81.2422C50.0625 81.2422 58.7363 78.0391 65.6309 72.6484V75.832C65.6309 77.082 66.1191 78.2734 66.998 79.1523L86.4727 98.623C88.3086 100.459 91.2773 100.459 93.0938 98.623L98.6211 93.0957C100.457 91.2598 100.457 88.293 98.6406 86.457ZM40.6289 68.7422C25.0938 68.7422 12.5039 56.1758 12.5039 40.6211C12.5039 25.0879 25.0723 12.5 40.6289 12.5C56.1641 12.5 68.7539 25.0664 68.7539 40.6211C68.7539 56.1543 56.1855 68.7422 40.6289 68.7422ZM45.9238 38.9492L37.1328 36.3125C36.125 36.0098 35.4199 34.9883 35.4199 33.8262C35.4199 32.4062 36.4551 31.25 37.7246 31.25H43.2148C44.1055 31.25 44.9648 31.502 45.7188 31.9766C46.3516 32.373 47.1562 32.3496 47.6973 31.834L49.9922 29.6445C50.6816 28.9863 50.6426 27.8457 49.8809 27.2734C48.1035 25.9395 45.959 25.1699 43.7539 25.0566V21.875C43.7539 21.0117 43.0547 20.3125 42.1914 20.3125H39.0664C38.2031 20.3125 37.5039 21.0117 37.5039 21.875V25.0234C32.8887 25.1465 29.168 29.0371 29.168 33.8262C29.168 37.7266 31.7051 41.2109 35.3359 42.3008L44.127 44.9375C45.1348 45.2402 45.8398 46.2617 45.8398 47.4238C45.8398 48.8438 44.8047 50 43.5352 50H38.0469C37.1562 50 36.2969 49.748 35.543 49.2734C34.9102 48.877 34.1055 48.9004 33.5645 49.416L31.2695 51.6055C30.5801 52.2637 30.6191 53.4043 31.3809 53.9766C33.1582 55.3105 35.3027 56.0801 37.5078 56.1934V59.375C37.5078 60.2383 38.207 60.9375 39.0703 60.9375H42.1953C43.0586 60.9375 43.7578 60.2383 43.7578 59.375V56.2266C48.373 56.1035 52.0938 52.2148 52.0938 47.4238C52.0938 43.5234 49.5566 40.0391 45.9238 38.9492Z" fill="black"/>
</g>
<defs>
<clipPath id="clip0">
<rect width="100" height="100" fill="white"/>
</clipPath>
</defs>
</svg>
